<svg version="1.1" xmlns="http://www.w3.org/2000/svg" viewBox="0 0 1697 1339" width="1697" height="1339">
  <!-- svg-source:excalidraw -->
  
  <defs>
    <style class="style-fonts">
      @font-face {
        font-family: "Virgil";
        src: url("https://excalidraw.com/Virgil.woff2");
      }
      @font-face {
        font-family: "Cascadia";
        src: url("https://excalidraw.com/Cascadia.woff2");
      }
    </style>
  </defs>
  <rect x="0" y="0" width="1697" height="1339" fill="#ffffff"></rect><g stroke-linecap="round" transform="translate(10 10) rotate(0 166.5 197)"><path d="M32 0 M32 0 C140.75 -2.6, 246.51 -1.53, 301 0 M32 0 C95.94 0.53, 160.73 0.49, 301 0 M301 0 C324.19 1.01, 331.39 8.99, 333 32 M301 0 C321.61 -1.66, 334.2 10.68, 333 32 M333 32 C334.21 139.53, 332.79 243.82, 333 362 M333 32 C332.74 99.96, 332.32 166.73, 333 362 M333 362 C334.9 382.91, 323.56 392.61, 301 394 M333 362 C330.87 381.3, 323.01 395.4, 301 394 M301 394 C227.44 393.81, 153.52 396.76, 32 394 M301 394 C237.21 391.97, 173.08 392.19, 32 394 M32 394 C11.39 393.27, -1.19 381.88, 0 362 M32 394 C8.87 393.98, 1.46 385.38, 0 362 M0 362 C-2.86 259.73, -0.66 159.91, 0 32 M0 362 C1.36 244.88, 1.69 126.44, 0 32 M0 32 C0.74 10.15, 10.55 0.08, 32 0 M0 32 C0.03 9.09, 11.38 1.94, 32 0" stroke="#000000" stroke-width="1" fill="none"></path></g><g transform="translate(61 41) rotate(0 108.5 175)"><text x="0" y="18" font-family="Virgil, Segoe UI Emoji" font-size="20px" fill="#000000" text-anchor="start" style="white-space: pre;" direction="ltr">Personnage_base</text><text x="0" y="43" font-family="Virgil, Segoe UI Emoji" font-size="20px" fill="#000000" text-anchor="start" style="white-space: pre;" direction="ltr"></text><text x="0" y="68" font-family="Virgil, Segoe UI Emoji" font-size="20px" fill="#000000" text-anchor="start" style="white-space: pre;" direction="ltr">CodePersonnage_base</text><text x="0" y="93" font-family="Virgil, Segoe UI Emoji" font-size="20px" fill="#000000" text-anchor="start" style="white-space: pre;" direction="ltr">Name</text><text x="0" y="118" font-family="Virgil, Segoe UI Emoji" font-size="20px" fill="#000000" text-anchor="start" style="white-space: pre;" direction="ltr">Coût</text><text x="0" y="143" font-family="Virgil, Segoe UI Emoji" font-size="20px" fill="#000000" text-anchor="start" style="white-space: pre;" direction="ltr">Lvl</text><text x="0" y="168" font-family="Virgil, Segoe UI Emoji" font-size="20px" fill="#000000" text-anchor="start" style="white-space: pre;" direction="ltr">Powerclick</text><text x="0" y="193" font-family="Virgil, Segoe UI Emoji" font-size="20px" fill="#000000" text-anchor="start" style="white-space: pre;" direction="ltr">AutoclickCost</text><text x="0" y="218" font-family="Virgil, Segoe UI Emoji" font-size="20px" fill="#000000" text-anchor="start" style="white-space: pre;" direction="ltr">Groth_Rate</text><text x="0" y="243" font-family="Virgil, Segoe UI Emoji" font-size="20px" fill="#000000" text-anchor="start" style="white-space: pre;" direction="ltr">img</text><text x="0" y="268" font-family="Virgil, Segoe UI Emoji" font-size="20px" fill="#000000" text-anchor="start" style="white-space: pre;" direction="ltr">Image_logo_série</text><text x="0" y="293" font-family="Virgil, Segoe UI Emoji" font-size="20px" fill="#000000" text-anchor="start" style="white-space: pre;" direction="ltr">Quotes</text><text x="0" y="318" font-family="Virgil, Segoe UI Emoji" font-size="20px" fill="#000000" text-anchor="start" style="white-space: pre;" direction="ltr">Episode</text><text x="0" y="343" font-family="Virgil, Segoe UI Emoji" font-size="20px" fill="#000000" text-anchor="start" style="white-space: pre;" direction="ltr"></text></g><g stroke-linecap="round" transform="translate(1362 14) rotate(0 162.5 199.5)"><path d="M32 0 M32 0 C124.67 1.36, 218.1 1.57, 293 0 M32 0 C95.52 -1.26, 161.15 -0.36, 293 0 M293 0 C313.29 -0.38, 326.68 12.29, 325 32 M293 0 C315.8 0.92, 323.9 11.27, 325 32 M325 32 C322.24 112.01, 321.55 193.93, 325 367 M325 32 C325.09 144.2, 324.51 255.79, 325 367 M325 367 C325.29 387.1, 312.38 399.65, 293 399 M325 367 C327.11 389.17, 314.22 398.53, 293 399 M293 399 C197.47 397.82, 105.24 398.33, 32 399 M293 399 C192.42 399.63, 92.03 399.59, 32 399 M32 399 C11.18 397.9, 0.27 389.63, 0 367 M32 399 C12.71 397.94, -1.98 389.46, 0 367 M0 367 C-2.59 268.61, -2.26 167.8, 0 32 M0 367 C-0.81 260.38, -0.78 154.28, 0 32 M0 32 C1.37 11.11, 12.35 1.3, 32 0 M0 32 C-1.46 12.04, 9.28 2.26, 32 0" stroke="#000000" stroke-width="1" fill="none"></path></g><g transform="translate(1470 51) rotate(0 47 75)"><text x="0" y="18" font-family="Virgil, Segoe UI Emoji" font-size="20px" fill="#000000" text-anchor="start" style="white-space: pre;" direction="ltr">User</text><text x="0" y="43" font-family="Virgil, Segoe UI Emoji" font-size="20px" fill="#000000" text-anchor="start" style="white-space: pre;" direction="ltr"></text><text x="0" y="68" font-family="Virgil, Segoe UI Emoji" font-size="20px" fill="#000000" text-anchor="start" style="white-space: pre;" direction="ltr">CodeUser</text><text x="0" y="93" font-family="Virgil, Segoe UI Emoji" font-size="20px" fill="#000000" text-anchor="start" style="white-space: pre;" direction="ltr">Name</text><text x="0" y="118" font-family="Virgil, Segoe UI Emoji" font-size="20px" fill="#000000" text-anchor="start" style="white-space: pre;" direction="ltr">Mail</text><text x="0" y="143" font-family="Virgil, Segoe UI Emoji" font-size="20px" fill="#000000" text-anchor="start" style="white-space: pre;" direction="ltr">Password</text></g><g stroke-linecap="round" transform="translate(636 38) rotate(0 152 195)"><path d="M32 0 M32 0 C85.42 0.69, 139.45 0.91, 272 0 M32 0 C123.37 -1.9, 214.2 -1.92, 272 0 M272 0 C292.85 -1.62, 304.5 11.55, 304 32 M272 0 C291.42 2.27, 304.18 12.12, 304 32 M304 32 C304.99 145.53, 304.97 258.09, 304 358 M304 32 C304.37 139.23, 304.57 245.85, 304 358 M304 358 C303.89 379.23, 294.36 390.43, 272 390 M304 358 C302.29 379.6, 292.05 388.52, 272 390 M272 390 C193.35 391.43, 110.95 391.69, 32 390 M272 390 C202.36 391.66, 133.89 391.47, 32 390 M32 390 C12.02 388.68, 1.62 380.51, 0 358 M32 390 C9.68 392.29, -0.15 380.77, 0 358 M0 358 C-1.56 260.16, -1.59 164.03, 0 32 M0 358 C0.9 261.34, 0.88 166.23, 0 32 M0 32 C-1.28 12.49, 12.33 1.62, 32 0 M0 32 C-1.36 12.28, 12.55 1.14, 32 0" stroke="#000000" stroke-width="1" fill="none"></path></g><g transform="translate(664 60) rotate(0 136 125)"><text x="0" y="18" font-family="Virgil, Segoe UI Emoji" font-size="20px" fill="#000000" text-anchor="start" style="white-space: pre;" direction="ltr">Personnage_from_user</text><text x="0" y="43" font-family="Virgil, Segoe UI Emoji" font-size="20px" fill="#000000" text-anchor="start" style="white-space: pre;" direction="ltr"></text><text x="0" y="68" font-family="Virgil, Segoe UI Emoji" font-size="20px" fill="#000000" text-anchor="start" style="white-space: pre;" direction="ltr">CodePersonnage_from_user</text><text x="0" y="93" font-family="Virgil, Segoe UI Emoji" font-size="20px" fill="#000000" text-anchor="start" style="white-space: pre;" direction="ltr">Name</text><text x="0" y="118" font-family="Virgil, Segoe UI Emoji" font-size="20px" fill="#000000" text-anchor="start" style="white-space: pre;" direction="ltr">Lvl</text><text x="0" y="143" font-family="Virgil, Segoe UI Emoji" font-size="20px" fill="#000000" text-anchor="start" style="white-space: pre;" direction="ltr">Powerclick</text><text x="0" y="168" font-family="Virgil, Segoe UI Emoji" font-size="20px" fill="#000000" text-anchor="start" style="white-space: pre;" direction="ltr">Cost</text><text x="0" y="193" font-family="Virgil, Segoe UI Emoji" font-size="20px" fill="#000000" text-anchor="start" style="white-space: pre;" direction="ltr">Autoclick_statut</text><text x="0" y="218" font-family="Virgil, Segoe UI Emoji" font-size="20px" fill="#000000" text-anchor="start" style="white-space: pre;" direction="ltr">UserCode</text><text x="0" y="243" font-family="Virgil, Segoe UI Emoji" font-size="20px" fill="#000000" text-anchor="start" style="white-space: pre;" direction="ltr">Personnage_baseCode</text></g><g stroke-linecap="round" transform="translate(1056 175) rotate(0 82.5 40)"><path d="M63.59 0.35 C75.08 -1.68, 90.69 -1.19, 103.17 0.46 C115.66 2.1, 129.12 5.79, 138.51 10.21 C147.9 14.62, 155.07 21.18, 159.51 26.94 C163.94 32.71, 166.75 38.64, 165.13 44.8 C163.51 50.95, 157.34 58.59, 149.78 63.87 C142.22 69.14, 131.11 73.71, 119.75 76.44 C108.4 79.17, 94.43 80.6, 81.66 80.26 C68.88 79.92, 54.39 77.48, 43.08 74.41 C31.76 71.35, 20.97 66.85, 13.77 61.87 C6.57 56.88, 1.24 50.7, -0.12 44.49 C-1.47 38.29, 0.81 30.48, 5.63 24.65 C10.46 18.82, 17.57 13.69, 28.84 9.54 C40.11 5.38, 64.39 1.18, 73.27 -0.27 C82.15 -1.72, 82.08 0.07, 82.14 0.83 M70.85 1.42 C82.54 -0.54, 95.89 -1.18, 107.7 0.79 C119.51 2.76, 132.64 8.56, 141.72 13.25 C150.8 17.94, 158.6 23.28, 162.17 28.92 C165.74 34.56, 165.75 40.76, 163.15 47.11 C160.55 53.45, 154.83 62.02, 146.59 67 C138.35 71.99, 125.63 75.1, 113.7 77.02 C101.78 78.94, 87.79 78.9, 75.04 78.52 C62.3 78.14, 47.77 77.7, 37.23 74.76 C26.7 71.81, 18.24 66.34, 11.85 60.83 C5.46 55.33, -0.52 48.3, -1.12 41.72 C-1.72 35.14, 2.62 26.98, 8.23 21.36 C13.85 15.75, 22.17 11.56, 32.58 8.02 C42.99 4.48, 64.6 1.47, 70.7 0.13 C76.8 -1.21, 69.08 -0.91, 69.18 -0.03" stroke="#000000" stroke-width="1" fill="none"></path></g><g stroke-linecap="round"><g transform="translate(941 220) rotate(0 57.41833669284358 -1.6447193461004872)"><path d="M0.91 0.56 C19.68 0.06, 94.05 -1.77, 112.82 -2.17 M-0.07 -0.19 C19.03 -1.09, 96.14 -3.29, 114.91 -3.85" stroke="#000000" stroke-width="1" fill="none"></path></g></g><mask></mask><g stroke-linecap="round"><g transform="translate(1220 218) rotate(0 71.68456254564228 0.579667799994354)"><path d="M0.8 -0.58 C24.47 -0.3, 117.66 1.39, 141.28 1.53 M-0.24 1.74 C23.88 1.66, 119.9 -0.22, 143.61 -0.32" stroke="#000000" stroke-width="1" fill="none"></path></g></g><mask></mask><g stroke-linecap="round"><g transform="translate(346 186) rotate(0 44.097460375353705 2.152989107146851)"><path d="M-0.45 -1.08 C14.29 -0.27, 73.74 3.2, 88.65 3.9 M1.51 0.96 C16.04 2.06, 73.06 4.88, 87.51 5.39" stroke="#000000" stroke-width="1" fill="none"></path></g><g transform="translate(346 186) rotate(0 44.097460375353705 2.152989107146851)"><path d="M57.09 13.81 C67.9 11.66, 75.76 8.89, 87.49 4.42 M59.32 13.91 C64.85 12.81, 71.3 10.97, 88.02 6.17" stroke="#000000" stroke-width="1" fill="none"></path></g><g transform="translate(346 186) rotate(0 44.097460375353705 2.152989107146851)"><path d="M57.99 -6.69 C68.35 -2.33, 75.92 1.42, 87.49 4.42 M60.22 -6.59 C65.45 -3.4, 71.71 -0.96, 88.02 6.17" stroke="#000000" stroke-width="1" fill="none"></path></g></g><mask></mask><g stroke-linecap="round" transform="translate(436 154) rotate(0 62.5 49.5)"><path d="M40.97 3.75 C50.11 0.65, 63.32 -0.1, 73.64 1.34 C83.97 2.77, 95.07 7.23, 102.92 12.37 C110.78 17.52, 117.32 24.49, 120.75 32.21 C124.19 39.92, 125.38 50.4, 123.55 58.66 C121.72 66.92, 116.47 75.4, 109.79 81.76 C103.11 88.12, 93.2 94.07, 83.48 96.82 C73.75 99.58, 61.57 99.76, 51.43 98.29 C41.29 96.82, 30.51 93.46, 22.64 88.01 C14.78 82.56, 7.9 73.46, 4.25 65.61 C0.59 57.76, -1.04 49.07, 0.71 40.91 C2.47 32.75, 7.06 23, 14.79 16.62 C22.51 10.24, 41.19 5.22, 47.05 2.65 C52.92 0.07, 49.92 0.4, 49.97 1.17 M43.31 1.89 C52.33 -1.14, 64.6 0.35, 74.92 2.2 C85.24 4.04, 97.27 7.53, 105.24 12.94 C113.2 18.36, 119.77 26.87, 122.68 34.69 C125.59 42.51, 124.91 51.94, 122.68 59.85 C120.44 67.76, 116.03 76.14, 109.26 82.14 C102.48 88.15, 91.83 92.99, 82.03 95.87 C72.23 98.75, 60.5 100.77, 50.45 99.43 C40.4 98.09, 29.83 93.8, 21.72 87.83 C13.61 81.87, 5.23 71.67, 1.8 63.64 C-1.63 55.6, -1.18 47.7, 1.15 39.61 C3.47 31.52, 8.64 21.43, 15.78 15.09 C22.91 8.75, 39.31 3.36, 43.96 1.58 C48.61 -0.21, 43.39 3.37, 43.68 4.4" stroke="#000000" stroke-width="1" fill="none"></path></g><g stroke-linecap="round"><g transform="translate(563 206) rotate(0 35.9665510915965 -0.13442105267424154)"><path d="M0.5 1.17 C12.61 1.27, 60.9 0.65, 72.64 0.1 M-0.7 0.74 C11.32 0.57, 59.7 -1.09, 72.02 -1.45" stroke="#000000" stroke-width="1" fill="none"></path></g><g transform="translate(563 206) rotate(0 35.9665510915965 -0.13442105267424154)"><path d="M46.12 10.76 C54.22 4.5, 58.69 2.84, 72.22 -1.53 M44.45 10.34 C50.29 8, 55 4.97, 72.97 -2.42" stroke="#000000" stroke-width="1" fill="none"></path></g><g transform="translate(563 206) rotate(0 35.9665510915965 -0.13442105267424154)"><path d="M45.47 -9.75 C53.67 -10, 58.33 -5.64, 72.22 -1.53 M43.8 -10.17 C49.91 -8.38, 54.76 -7.27, 72.97 -2.42" stroke="#000000" stroke-width="1" fill="none"></path></g></g><mask></mask><g transform="translate(449 184) rotate(0 33.5 12.5)"><text x="0" y="18" font-family="Virgil, Segoe UI Emoji" font-size="20px" fill="#000000" text-anchor="start" style="white-space: pre;" direction="ltr">Inspire</text></g><g transform="translate(1101 193) rotate(0 42 12.5)"><text x="0" y="18" font-family="Virgil, Segoe UI Emoji" font-size="20px" fill="#000000" text-anchor="start" style="white-space: pre;" direction="ltr">Possède</text></g><g stroke-linecap="round" transform="translate(1351 543) rotate(0 167.5 187)"><path d="M32 0 M32 0 C104.79 -3.48, 177.32 -0.73, 303 0 M32 0 C134.94 2.41, 238.99 1.78, 303 0 M303 0 C322.81 -0.48, 335.37 10.35, 335 32 M303 0 C325.58 1.55, 335.16 11.37, 335 32 M335 32 C335.9 135.91, 335.01 240.13, 335 342 M335 32 C332.59 101.67, 333.05 173.03, 335 342 M335 342 C333.81 363.83, 325 374.27, 303 374 M335 342 C335.86 361.79, 326.51 372.36, 303 374 M303 374 C212.18 375.46, 119.16 374.87, 32 374 M303 374 C248.1 375.92, 194.91 375.7, 32 374 M32 374 C11.99 373.79, -0.64 361.36, 0 342 M32 374 C12.64 376.28, 0.67 363.79, 0 342 M0 342 C-1.86 275.7, -1.46 212.24, 0 32 M0 342 C-0.11 262.32, -0.6 182.3, 0 32 M0 32 C0.35 11.75, 10.42 -1.48, 32 0 M0 32 C1.08 12.01, 12.41 0.53, 32 0" stroke="#000000" stroke-width="1" fill="none"></path></g><g transform="translate(1404 568) rotate(0 46.5 12.5)"><text x="0" y="18" font-family="Virgil, Segoe UI Emoji" font-size="20px" fill="#000000" text-anchor="start" style="white-space: pre;" direction="ltr">Inventory</text></g><g transform="translate(1403 618) rotate(0 64.5 62.5)"><text x="0" y="18" font-family="Virgil, Segoe UI Emoji" font-size="20px" fill="#000000" text-anchor="start" style="white-space: pre;" direction="ltr">CodeInvetory</text><text x="0" y="43" font-family="Virgil, Segoe UI Emoji" font-size="20px" fill="#000000" text-anchor="start" style="white-space: pre;" direction="ltr">XP</text><text x="0" y="68" font-family="Virgil, Segoe UI Emoji" font-size="20px" fill="#000000" text-anchor="start" style="white-space: pre;" direction="ltr">Powerclick</text><text x="0" y="93" font-family="Virgil, Segoe UI Emoji" font-size="20px" fill="#000000" text-anchor="start" style="white-space: pre;" direction="ltr">UserCode</text><text x="0" y="118" font-family="Virgil, Segoe UI Emoji" font-size="20px" fill="#000000" text-anchor="start" style="white-space: pre;" direction="ltr">Gils</text></g><g stroke-linecap="round"><g transform="translate(1491 417) rotate(0 0.19400649089322997 18.750783379301424)"><path d="M-1.18 -0.04 C-1.43 6.33, -1 32.47, -0.7 38.61 M0.41 -1.11 C0.47 4.88, 1.67 30.37, 1.64 36.8" stroke="#000000" stroke-width="1" fill="none"></path></g></g><mask></mask><g stroke-linecap="round" transform="translate(1376 457) rotate(0 108.5 21.5)"><path d="M95.03 0.08 C108.61 -0.53, 125.82 0.34, 140.08 1.37 C154.34 2.4, 169.31 4.53, 180.6 6.26 C191.9 7.99, 201.88 9.14, 207.84 11.73 C213.79 14.32, 216.13 18.76, 216.33 21.82 C216.53 24.87, 214.95 27.53, 209.06 30.07 C203.16 32.6, 191.98 34.92, 180.97 37.02 C169.96 39.12, 156.73 41.85, 143.01 42.67 C129.29 43.48, 113.33 42.21, 98.65 41.92 C83.97 41.63, 67.96 42.2, 54.94 40.95 C41.91 39.69, 29.24 36.96, 20.52 34.41 C11.79 31.86, 5.81 28.44, 2.58 25.64 C-0.65 22.85, -1.89 20.4, 1.14 17.64 C4.17 14.88, 11.97 11.48, 20.75 9.08 C29.52 6.68, 40.9 4.77, 53.78 3.25 C66.65 1.74, 89.99 0.45, 97.98 -0.02 C105.98 -0.49, 101.58 0.08, 101.74 0.43 M152.53 2 C165.58 2.96, 178.93 5.42, 188.93 7.48 C198.92 9.53, 208 11.79, 212.51 14.34 C217.02 16.9, 217.7 20.02, 215.99 22.81 C214.29 25.61, 209.71 28.39, 202.27 31.12 C194.83 33.85, 183.51 37.41, 171.34 39.19 C159.16 40.98, 143.46 41.48, 129.21 41.85 C114.96 42.21, 100.35 42.09, 85.84 41.39 C71.33 40.69, 54.04 39.31, 42.18 37.65 C30.31 35.98, 21.47 33.81, 14.67 31.4 C7.87 28.99, 2.67 26.16, 1.37 23.17 C0.07 20.17, 2.06 16.08, 6.87 13.45 C11.67 10.81, 20.2 9.14, 30.2 7.38 C40.2 5.62, 53.6 3.89, 66.87 2.89 C80.14 1.9, 95.57 1.54, 109.84 1.42 C124.1 1.29, 145.25 2.05, 152.46 2.12 C159.66 2.2, 153.68 1.68, 153.05 1.87" stroke="#000000" stroke-width="1" fill="none"></path></g><g stroke-linecap="round"><g transform="translate(1467 501) rotate(0 -1.154478880977308 18.37306851735343)"><path d="M0.91 -0.02 C0.37 5.96, -2.07 30.52, -2.87 36.87 M-0.07 -1.07 C-0.7 5.54, -2.47 31.06, -3.22 37.82" stroke="#000000" stroke-width="1" fill="none"></path></g></g><mask></mask><g transform="translate(1443 465) rotate(0 42 12.5)"><text x="0" y="18" font-family="Virgil, Segoe UI Emoji" font-size="20px" fill="#000000" text-anchor="start" style="white-space: pre;" direction="ltr">Possède</text></g><g transform="translate(1471 202) rotate(0 87 25)"><text x="0" y="18" font-family="Virgil, Segoe UI Emoji" font-size="20px" fill="#000000" text-anchor="start" style="white-space: pre;" direction="ltr">Tutorial_status</text><text x="0" y="43" font-family="Virgil, Segoe UI Emoji" font-size="20px" fill="#000000" text-anchor="start" style="white-space: pre;" direction="ltr">Autoclick_status</text></g><g stroke-linecap="round" transform="translate(657 506) rotate(0 168.5 202)"><path d="M32 0 M32 0 C107.08 1.67, 183.93 1.45, 305 0 M32 0 C108.08 1.43, 184.29 1.15, 305 0 M305 0 C327.75 0.59, 338.26 10.83, 337 32 M305 0 C325.1 -1.1, 337.16 10.27, 337 32 M337 32 C336.32 153.64, 337.12 278.84, 337 372 M337 32 C335.18 115.06, 335.39 197.54, 337 372 M337 372 C336.71 392.79, 327.78 405.68, 305 404 M337 372 C336.7 393.99, 325.28 402.97, 305 404 M305 404 C203.38 403.39, 102.22 404.69, 32 404 M305 404 C238.06 402.63, 170.89 401.4, 32 404 M32 404 C11.26 404.03, -0.48 392.75, 0 372 M32 404 C11.9 405.48, 1.69 392.42, 0 372 M0 372 C0.08 284.04, 0.3 196.86, 0 32 M0 372 C1.3 242.11, 0.56 111.81, 0 32 M0 32 C-1.04 9.05, 11.41 1.71, 32 0 M0 32 C-1.3 8.85, 10.92 0.92, 32 0" stroke="#000000" stroke-width="1" fill="none"></path></g><g transform="translate(715 537) rotate(0 88.5 100)"><text x="0" y="18" font-family="Virgil, Segoe UI Emoji" font-size="20px" fill="#000000" text-anchor="start" style="white-space: pre;" direction="ltr">Stage</text><text x="0" y="43" font-family="Virgil, Segoe UI Emoji" font-size="20px" fill="#000000" text-anchor="start" style="white-space: pre;" direction="ltr"></text><text x="0" y="68" font-family="Virgil, Segoe UI Emoji" font-size="20px" fill="#000000" text-anchor="start" style="white-space: pre;" direction="ltr">CodeStage</text><text x="0" y="93" font-family="Virgil, Segoe UI Emoji" font-size="20px" fill="#000000" text-anchor="start" style="white-space: pre;" direction="ltr">Number</text><text x="0" y="118" font-family="Virgil, Segoe UI Emoji" font-size="20px" fill="#000000" text-anchor="start" style="white-space: pre;" direction="ltr">ZoneCode</text><text x="0" y="143" font-family="Virgil, Segoe UI Emoji" font-size="20px" fill="#000000" text-anchor="start" style="white-space: pre;" direction="ltr">MonsterToDefeat</text><text x="0" y="168" font-family="Virgil, Segoe UI Emoji" font-size="20px" fill="#000000" text-anchor="start" style="white-space: pre;" direction="ltr">GoldToObtain</text><text x="0" y="193" font-family="Virgil, Segoe UI Emoji" font-size="20px" fill="#000000" text-anchor="start" style="white-space: pre;" direction="ltr"></text></g><g stroke-linecap="round" transform="translate(49 497) rotate(0 139.5 204.5)"><path d="M32 0 M32 0 C76.04 0.46, 119.63 2.17, 247 0 M32 0 C114.39 1.31, 197.33 1.33, 247 0 M247 0 C268.54 0.11, 277.02 12.18, 279 32 M247 0 C268.16 -0.72, 280.02 10.05, 279 32 M279 32 C278.81 115.89, 278.45 198.53, 279 377 M279 32 C277.86 122.5, 277.87 212.31, 279 377 M279 377 C280.76 398.76, 266.49 408.34, 247 409 M279 377 C277.79 399.05, 267.83 407.79, 247 409 M247 409 C202.03 410.79, 159.54 409.05, 32 409 M247 409 C198.09 407.13, 150.83 408.43, 32 409 M32 409 C9.01 409.79, 1.78 398.74, 0 377 M32 409 C11.79 407.86, -0.38 399.63, 0 377 M0 377 C1.12 300.48, -0.08 223.5, 0 32 M0 377 C0.64 273.07, 0.19 168.61, 0 32 M0 32 C-1.9 11.22, 10.1 -0.46, 32 0 M0 32 C1.82 12.02, 9.12 -1.41, 32 0" stroke="#000000" stroke-width="1" fill="none"></path></g><g transform="translate(76 523) rotate(0 62.5 112.5)"><text x="0" y="18" font-family="Virgil, Segoe UI Emoji" font-size="20px" fill="#000000" text-anchor="start" style="white-space: pre;" direction="ltr">Monster</text><text x="0" y="43" font-family="Virgil, Segoe UI Emoji" font-size="20px" fill="#000000" text-anchor="start" style="white-space: pre;" direction="ltr"></text><text x="0" y="68" font-family="Virgil, Segoe UI Emoji" font-size="20px" fill="#000000" text-anchor="start" style="white-space: pre;" direction="ltr">CodeMonster</text><text x="0" y="93" font-family="Virgil, Segoe UI Emoji" font-size="20px" fill="#000000" text-anchor="start" style="white-space: pre;" direction="ltr">Name</text><text x="0" y="118" font-family="Virgil, Segoe UI Emoji" font-size="20px" fill="#000000" text-anchor="start" style="white-space: pre;" direction="ltr">Image</text><text x="0" y="143" font-family="Virgil, Segoe UI Emoji" font-size="20px" fill="#000000" text-anchor="start" style="white-space: pre;" direction="ltr">PV</text><text x="0" y="168" font-family="Virgil, Segoe UI Emoji" font-size="20px" fill="#000000" text-anchor="start" style="white-space: pre;" direction="ltr">TimeToClear</text><text x="0" y="193" font-family="Virgil, Segoe UI Emoji" font-size="20px" fill="#000000" text-anchor="start" style="white-space: pre;" direction="ltr">StageCode</text><text x="0" y="218" font-family="Virgil, Segoe UI Emoji" font-size="20px" fill="#000000" text-anchor="start" style="white-space: pre;" direction="ltr">Episode</text></g><g stroke-linecap="round" transform="translate(413 628) rotate(0 83 54)"><path d="M88.61 -0.51 C100.15 -0.87, 113.88 2.63, 124.51 6.6 C135.14 10.58, 145.76 16.79, 152.38 23.34 C159.01 29.88, 162.47 38.23, 164.28 45.86 C166.09 53.48, 166.77 61.6, 163.23 69.1 C159.69 76.6, 151.16 84.89, 143.03 90.86 C134.89 96.84, 125.31 102.23, 114.42 104.96 C103.52 107.7, 89.8 108.02, 77.66 107.27 C65.52 106.53, 51.95 104.12, 41.58 100.48 C31.22 96.84, 22.42 91.66, 15.48 85.43 C8.55 79.2, 2.01 70.81, -0.03 63.09 C-2.07 55.37, -0.57 46.76, 3.22 39.1 C7.01 31.45, 14.47 23.13, 22.7 17.16 C30.93 11.18, 40.91 5.88, 52.59 3.24 C64.28 0.6, 85.29 1.62, 92.81 1.31 C100.33 0.99, 97.76 0.74, 97.71 1.35 M89.16 -0.82 C100.73 -0.67, 115.49 4.39, 125.89 8.37 C136.29 12.34, 144.93 16.61, 151.56 23.05 C158.19 29.49, 163.8 39.14, 165.67 47 C167.53 54.87, 166.4 62.85, 162.76 70.25 C159.11 77.64, 152.03 85.52, 143.79 91.38 C135.56 97.24, 124.86 102.63, 113.34 105.4 C101.81 108.17, 86.74 108.73, 74.64 107.98 C62.54 107.23, 50.87 104.96, 40.75 100.88 C30.63 96.8, 20.79 90.22, 13.93 83.5 C7.06 76.77, 1.22 67.99, -0.44 60.51 C-2.09 53.04, 0.2 46.11, 3.99 38.65 C7.78 31.18, 13.75 21.47, 22.28 15.71 C30.82 9.94, 44.04 6.89, 55.22 4.06 C66.4 1.24, 83.77 -0.74, 89.37 -1.24 C94.97 -1.73, 88.74 -0.19, 88.81 1.09" stroke="#000000" stroke-width="1" fill="none"></path></g><g transform="translate(424 668) rotate(0 70.5 12.5)"><text x="0" y="18" font-family="Virgil, Segoe UI Emoji" font-size="20px" fill="#000000" text-anchor="start" style="white-space: pre;" direction="ltr">Apparait dans</text></g><g stroke-linecap="round"><g transform="translate(323 667) rotate(0 44.61215820231894 3.7196295828674124)"><path d="M1.09 0.58 C15.83 1.65, 74.22 5.35, 89.02 6.44 M0.2 -0.16 C14.72 1.04, 73.11 6.17, 87.99 7.6" stroke="#000000" stroke-width="1" fill="none"></path></g><g transform="translate(323 667) rotate(0 44.61215820231894 3.7196295828674124)"><path d="M59.96 15 C67.85 13.53, 79.09 7.92, 86.7 8.74 M59.8 15.7 C69.95 12.39, 81 8.99, 88.13 7.04" stroke="#000000" stroke-width="1" fill="none"></path></g><g transform="translate(323 667) rotate(0 44.61215820231894 3.7196295828674124)"><path d="M61.82 -5.44 C69.07 0.22, 79.66 1.72, 86.7 8.74 M61.66 -4.73 C71.18 -0.17, 81.51 4.31, 88.13 7.04" stroke="#000000" stroke-width="1" fill="none"></path></g></g><mask></mask><g stroke-linecap="round"><g transform="translate(576 687) rotate(0 41.23269686512651 -0.42980229146775173)"><path d="M-1.13 -0.94 C12.64 -1.42, 69.54 -1.7, 83.59 -2.04 M0.48 1.18 C13.97 0.83, 68.23 0.03, 82.43 -0.52" stroke="#000000" stroke-width="1" fill="none"></path></g><g transform="translate(576 687) rotate(0 41.23269686512651 -0.42980229146775173)"><path d="M52.94 9.77 C65.03 5.16, 74.2 4.24, 83.53 1.31 M55.19 9.74 C59.84 7.51, 65.81 5.94, 81.99 -0.64" stroke="#000000" stroke-width="1" fill="none"></path></g><g transform="translate(576 687) rotate(0 41.23269686512651 -0.42980229146775173)"><path d="M52.42 -10.74 C64.85 -7.52, 74.22 -0.6, 83.53 1.31 M54.67 -10.77 C59.27 -8.64, 65.35 -5.85, 81.99 -0.64" stroke="#000000" stroke-width="1" fill="none"></path></g></g><mask></mask><g stroke-linecap="round" transform="translate(289 962) rotate(0 168 183.5)"><path d="M32 0 M32 0 C114.95 -2.4, 200.37 -0.61, 304 0 M32 0 C112.33 -0.85, 193.17 -1.17, 304 0 M304 0 C326.55 1.32, 334.96 11.26, 336 32 M304 0 C323.09 0.55, 335.19 12.33, 336 32 M336 32 C332.99 97.93, 333.97 163.33, 336 335 M336 32 C337.15 125.48, 337.71 218.83, 336 335 M336 335 C337.2 356.8, 324.12 366.57, 304 367 M336 335 C336.54 356.63, 324.66 369.06, 304 367 M304 367 C226.21 365.38, 143.79 367.72, 32 367 M304 367 C215.19 367.9, 126.24 366.86, 32 367 M32 367 C11.78 366.19, -0.04 354.5, 0 335 M32 367 C8.38 365.9, 1 357.26, 0 335 M0 335 C-1.81 252.26, -1.19 173.16, 0 32 M0 335 C-1.61 217.55, -1.73 98.86, 0 32 M0 32 C-0.73 11.3, 8.98 1.88, 32 0 M0 32 C-1.44 11.83, 11.42 -0.39, 32 0" stroke="#000000" stroke-width="1" fill="none"></path></g><g transform="translate(391 979) rotate(0 77 75)"><text x="0" y="18" font-family="Virgil, Segoe UI Emoji" font-size="20px" fill="#000000" text-anchor="start" style="white-space: pre;" direction="ltr">Zone</text><text x="0" y="43" font-family="Virgil, Segoe UI Emoji" font-size="20px" fill="#000000" text-anchor="start" style="white-space: pre;" direction="ltr"></text><text x="0" y="68" font-family="Virgil, Segoe UI Emoji" font-size="20px" fill="#000000" text-anchor="start" style="white-space: pre;" direction="ltr">CodeZone</text><text x="0" y="93" font-family="Virgil, Segoe UI Emoji" font-size="20px" fill="#000000" text-anchor="start" style="white-space: pre;" direction="ltr">Number</text><text x="0" y="118" font-family="Virgil, Segoe UI Emoji" font-size="20px" fill="#000000" text-anchor="start" style="white-space: pre;" direction="ltr">Background_img</text><text x="0" y="143" font-family="Virgil, Segoe UI Emoji" font-size="20px" fill="#000000" text-anchor="start" style="white-space: pre;" direction="ltr"></text></g><g stroke-linecap="round"><g transform="translate(467 962) rotate(0 1.5974095601588374 -43.59520684042013)"><path d="M-0.25 -0.61 C0.05 -7.33, 0.45 -25.99, 1.07 -40.7 C1.69 -55.41, 3.25 -81.12, 3.45 -88.88 M1.81 1.69 C2.56 -4.86, 3.11 -24.58, 3.29 -39.53 C3.48 -54.48, 3.11 -79.7, 2.92 -88.02" stroke="#000000" stroke-width="1" fill="none"></path></g></g><mask></mask><g stroke-linecap="round" transform="translate(369 807) rotate(0 97.5 35.5)"><path d="M53.96 3.3 C65.39 0.53, 81.76 -0.34, 96.02 -0.17 C110.27 0, 126.57 2.25, 139.48 4.31 C152.39 6.38, 164.62 8.37, 173.48 12.23 C182.33 16.08, 189.27 22.33, 192.6 27.46 C195.93 32.59, 196.62 38.12, 193.46 42.99 C190.31 47.87, 182.4 52.83, 173.67 56.72 C164.93 60.61, 153.46 63.92, 141.05 66.34 C128.63 68.76, 113.47 71.1, 99.17 71.23 C84.86 71.35, 67.99 69.4, 55.22 67.09 C42.46 64.78, 31.39 61.32, 22.59 57.38 C13.78 53.45, 5.76 48.45, 2.4 43.48 C-0.97 38.51, -0.78 32.42, 2.39 27.56 C5.56 22.7, 10.98 18.6, 21.42 14.33 C31.86 10.07, 55.61 4.03, 65.01 1.97 C74.41 -0.09, 77.06 1.4, 77.82 1.96 M104.5 0.18 C118.14 0.01, 135.07 2.58, 147.11 5.06 C159.15 7.54, 168.72 10.77, 176.73 15.06 C184.74 19.35, 192.63 25.62, 195.17 30.8 C197.71 35.97, 196.25 41.09, 191.98 46.11 C187.71 51.14, 179.41 57.17, 169.55 60.95 C159.7 64.73, 146.28 67.37, 132.88 68.81 C119.47 70.26, 103.24 70.11, 89.12 69.62 C75 69.14, 59.96 68.48, 48.15 65.91 C36.33 63.34, 26.2 58.24, 18.25 54.21 C10.29 50.19, 2.54 46.57, 0.43 41.74 C-1.67 36.92, 1.38 30.5, 5.63 25.28 C9.89 20.05, 16.52 14.24, 25.97 10.41 C35.41 6.58, 48.96 3.87, 62.31 2.27 C75.67 0.67, 98.89 1.22, 106.08 0.81 C113.27 0.4, 105.96 -0.48, 105.44 -0.18" stroke="#000000" stroke-width="1" fill="none"></path></g><g stroke-linecap="round"><g transform="translate(566 846) rotate(0 44.93964597054759 -0.1524946727696488)"><path d="M-0.22 0.25 C15.05 0.07, 76.2 -0.77, 91.67 -0.94 M-1.79 -0.66 C13.29 -0.65, 74.89 0.41, 90.55 0.63" stroke="#000000" stroke-width="1" fill="none"></path></g></g><mask></mask><g transform="translate(395 830) rotate(0 59.5 12.5)"><text x="0" y="18" font-family="Virgil, Segoe UI Emoji" font-size="20px" fill="#000000" text-anchor="start" style="white-space: pre;" direction="ltr">Sont reliées</text></g></svg>